<?xml version="1.0" standalone="no"?><!DOCTYPE svg PUBLIC "-//W3C//DTD SVG 1.1//EN" "http://www.w3.org/Graphics/SVG/1.1/DTD/svg11.dtd"><svg t="1655368800540" class="icon" viewBox="0 0 1024 1024" version="1.1" xmlns="http://www.w3.org/2000/svg" p-id="14286" xmlns:xlink="http://www.w3.org/1999/xlink" width="128" height="128"><defs><style type="text/css">@font-face { font-family: feedback-iconfont; src: url("//at.alicdn.com/t/font_1031158_u69w8yhxdu.woff2?t=1630033759944") format("woff2"), url("//at.alicdn.com/t/font_1031158_u69w8yhxdu.woff?t=1630033759944") format("woff"), url("//at.alicdn.com/t/font_1031158_u69w8yhxdu.ttf?t=1630033759944") format("truetype"); }
</style></defs><path d="M510.171429 919.771429c-226.742857 0-411.428571-184.685714-411.428572-411.428572S283.428571 96.914286 510.171429 96.914286 921.6 281.6 921.6 508.342857 736.914286 919.771429 510.171429 919.771429zM548.571429 230.4h-74.971429v266.971429H548.571429V230.4z m230.4 213.942857c-5.485714-21.942857-12.8-42.057143-23.771429-62.171428-10.971429-20.114286-21.942857-38.4-36.571429-54.857143-14.628571-16.457143-42.057143-40.228571-42.057142-40.228572s0 1.828571-40.228572 43.885715c64 40.228571 98.742857 104.228571 98.742857 184.685714 0 122.514286-100.571429 223.085714-223.085714 223.085714s-223.085714-100.571429-223.085714-223.085714c0-76.8 38.4-144.457143 98.742857-184.685714L347.428571 288.914286s-32.914286 27.428571-47.542857 43.885714c-14.628571 16.457143-25.6 34.742857-34.742857 53.028571s-16.457143 38.4-21.942857 60.342858c-5.485714 20.114286-7.314286 42.057143-7.314286 64 0 38.4 7.314286 74.971429 21.942857 107.885714 14.628571 32.914286 34.742857 62.171429 60.342858 87.771428s54.857143 43.885714 87.771428 60.342858 69.485714 21.942857 107.885714 21.942857c38.4 0 74.971429-7.314286 107.885715-21.942857 32.914286-14.628571 62.171429-34.742857 87.771428-60.342858s43.885714-54.857143 60.342857-87.771428c14.628571-32.914286 21.942857-69.485714 21.942858-107.885714-5.485714-21.942857-7.314286-45.714286-12.8-65.828572z" fill="#B77674" p-id="14287"></path></svg>