<?xml version="1.0" standalone="no"?><!DOCTYPE svg PUBLIC "-//W3C//DTD SVG 1.1//EN" "http://www.w3.org/Graphics/SVG/1.1/DTD/svg11.dtd"><svg t="1655366935970" class="icon" viewBox="0 0 1024 1024" version="1.1" xmlns="http://www.w3.org/2000/svg" p-id="7490" xmlns:xlink="http://www.w3.org/1999/xlink" width="128" height="128"><defs><style type="text/css">@font-face { font-family: feedback-iconfont; src: url("//at.alicdn.com/t/font_1031158_u69w8yhxdu.woff2?t=1630033759944") format("woff2"), url("//at.alicdn.com/t/font_1031158_u69w8yhxdu.woff?t=1630033759944") format("woff"), url("//at.alicdn.com/t/font_1031158_u69w8yhxdu.ttf?t=1630033759944") format("truetype"); }
</style></defs><path d="M780.904403 157.440775 274.136567 157.440775c-46.642297 0-84.461647 37.812187-84.461647 84.464717l0 506.767835c0 46.642297 37.818327 84.457554 84.461647 84.457554l506.767835 0c46.645366 0 84.461647-37.815257 84.461647-84.457554L865.36605 241.905492C865.365027 195.252962 827.549769 157.440775 780.904403 157.440775zM470.852858 274.907117l0.00307 0 285.170878 0 0 57.314357L632.778784 332.221474l-8.387018 44.734854 118.585839 0 0 212.944903-62.440098 0L680.537508 432.871825 536.557302 432.871825l0 160.28966-62.440098 0L474.117205 376.956328l80.146365 0 8.387018-44.734854-91.797729 0L470.852858 274.907117zM412.494729 676.337859c-6.605442 11.027148-15.57472 17.938558-26.91193 20.7373-11.340279 2.794649-36.809347 4.192485-76.416414 4.192485-2.176572-18.637476-5.747911-38.8314-10.720156-60.576657 14.290471 1.555425 28.266787 2.332115 41.940205 2.332115 12.423961 0 18.637476-6.831592 18.637476-20.503986l0-278.646278-59.643402 0 0-63.837934L463.865723 280.034904l0 63.837934-41.470507 0 0 287.4989 0.001023 0C422.396239 650.322345 419.09403 665.308665 412.494729 676.337859zM724.340129 717.110471c-31.067576-25.786293-69.975724-55.376215-116.725468-88.766696-20.967544 34.945907-64.536852 65.153906-130.702807 90.629113-9.629311-18.330484-22.056342-38.521339-37.275975-60.57461 33.549094-9.162684 61.466933-21.12104 83.756589-35.881209 22.286586-14.753005 37.045731-34.981722 44.268226-60.690244 7.219425-25.705452 10.832719-59.063187 10.832719-100.06809l61.508889 0c0 45.51359-3.65218 83.331917-10.949376 113.462145 43.799552 27.649733 88.763626 58.170864 134.895293 91.564415L724.340129 717.110471z" p-id="7491" fill="#2c2c2c"></path></svg>